<?xml version="1.0" standalone="no"?>
<!DOCTYPE svg PUBLIC "-//W3C//DTD SVG 20010904//EN"
 "http://www.w3.org/TR/2001/REC-SVG-20010904/DTD/svg10.dtd">
<svg version="1.0" xmlns="http://www.w3.org/2000/svg"
 width="1472.000000pt" height="832.000000pt" viewBox="0 0 1472.000000 832.000000"
 preserveAspectRatio="xMidYMid meet">

<g transform="translate(0.000000,832.000000) scale(0.100000,-0.100000)"
fill="#000000" stroke="none">
<path d="M3813 5920 c-153 -21 -314 -78 -499 -175 -398 -209 -843 -664 -1126
-1154 -65 -111 -171 -347 -213 -475 -19 -56 -49 -171 -66 -256 -30 -145 -33
-168 -32 -350 0 -176 3 -204 26 -291 35 -132 69 -200 140 -275 44 -48 80 -74
136 -102 75 -36 77 -37 196 -36 101 1 135 5 210 28 234 71 482 242 770 530
152 153 222 235 408 484 112 150 137 178 137 155 0 -15 -4 -44 -9 -63 -5 -19
-19 -92 -32 -163 l-22 -127 -71 -54 c-252 -191 -499 -486 -663 -792 l-58 -109
-155 -51 c-196 -64 -320 -112 -342 -131 -10 -9 -18 -24 -18 -35 0 -23 39 -24
130 -2 150 36 330 71 330 65 0 -3 -13 -47 -29 -98 -60 -190 -68 -376 -20 -469
59 -115 164 -139 303 -70 172 85 349 335 486 686 18 47 35 87 36 89 11 14
1043 163 1459 210 570 66 1522 140 2190 171 127 6 322 15 435 20 618 30 887
41 1177 47 303 6 325 5 358 -12 34 -19 34 -19 58 3 l24 23 734 6 c404 3 760 3
793 -1 l58 -8 -8 -46 c-5 -26 -8 -71 -9 -101 0 -60 15 -78 58 -68 29 8 55 55
87 161 l22 69 894 -5 c492 -3 891 -2 887 2 -9 8 -363 25 -823 40 -168 6 -413
15 -545 20 -132 6 -273 10 -312 10 -52 0 -73 4 -73 13 0 6 16 68 37 135 l37
124 30 -6 c135 -23 231 -29 311 -18 96 13 174 48 196 88 20 39 1 49 -84 44
-157 -10 -337 9 -387 40 -21 13 21 133 301 862 155 404 293 730 423 999 49
102 38 98 327 119 313 24 352 28 459 47 117 21 152 36 148 65 -2 18 -14 26
-53 38 -84 25 -616 18 -1105 -14 -1384 -90 -1876 -190 -2287 -465 -205 -137
-305 -301 -249 -410 22 -41 89 -98 126 -106 41 -9 54 4 40 39 -16 43 -12 106
11 152 28 60 139 160 244 222 99 57 339 156 479 197 177 50 314 69 526 69 154
1 213 -3 280 -18 162 -35 258 -88 291 -160 33 -73 19 -161 -47 -286 -109 -209
-321 -351 -687 -461 -195 -59 -201 -59 -272 -10 -59 40 -150 71 -207 71 -40 0
-94 -25 -107 -48 -28 -52 0 -89 76 -101 56 -8 41 -16 -52 -26 -33 -3 -68 -8
-77 -11 -10 -3 -18 0 -18 7 0 6 52 140 116 297 119 295 144 373 144 455 0 129
-126 110 -203 -30 -42 -79 -140 -347 -237 -653 -32 -102 -77 -237 -99 -300
-61 -174 -185 -566 -235 -744 -24 -87 -50 -164 -56 -170 -8 -8 -232 -13 -783
-18 -1375 -11 -2014 -44 -3117 -159 -583 -60 -872 -97 -1324 -170 -170 -27
-310 -48 -313 -46 -2 2 16 78 41 168 24 90 81 333 126 539 45 206 98 438 117
515 47 187 50 215 24 239 -27 25 -77 23 -113 -4 -39 -29 -35 -11 7 28 59 56
71 163 22 197 -51 36 -111 8 -150 -71 -34 -68 -121 -118 -247 -143 -30 -6
-145 -19 -255 -30 -223 -23 -338 -48 -405 -89 -51 -31 -92 -86 -88 -117 4 -29
72 -32 151 -6 82 27 164 39 327 46 74 3 190 11 258 16 68 6 126 8 129 5 18
-18 -312 -458 -455 -607 -327 -341 -672 -539 -942 -539 -196 0 -283 172 -267
525 17 360 131 693 381 1108 134 222 328 452 556 660 225 205 508 368 716 412
131 28 240 15 271 -32 14 -22 15 -33 5 -82 -25 -120 -161 -336 -336 -530 -73
-82 -86 -112 -65 -150 33 -59 93 -36 198 75 140 148 251 309 315 459 27 64 30
80 30 185 1 99 -2 121 -21 156 -22 41 -75 84 -126 103 -41 16 -152 21 -224 11z
m8022 -377 c-3 -16 -61 -176 -127 -358 -249 -679 -336 -929 -434 -1246 -36
-118 -69 -217 -73 -222 -13 -14 -179 96 -292 193 -127 109 -409 404 -409 428
0 4 37 15 83 25 208 46 499 163 638 258 135 91 266 242 309 356 42 114 44 248
3 326 -40 79 -166 180 -264 212 -28 10 -48 19 -45 22 6 7 394 30 525 32 l93 1
-7 -27z m-1501 -1276 c17 -18 90 -102 162 -187 150 -177 342 -367 427 -423 32
-21 96 -59 141 -83 84 -44 84 -45 76 -77 -29 -121 -63 -245 -70 -257 -7 -11
-99 -11 -562 -1 -304 6 -653 11 -775 11 -122 0 -224 3 -227 8 -5 8 144 407
189 507 15 33 59 139 97 235 95 237 89 227 151 244 54 16 212 43 282 49 22 2
48 4 59 5 10 1 32 -13 50 -31z m-6548 -899 c-55 -259 -99 -428 -130 -503 -16
-38 -6 -34 -200 -75 -82 -17 -160 -36 -174 -41 -14 -5 -27 -7 -30 -5 -8 9 162
258 243 356 85 102 270 290 286 290 5 0 7 -10 5 -22z m-217 -770 c-60 -154
-193 -368 -293 -470 -78 -80 -113 -100 -169 -96 l-42 3 0 105 c1 88 6 123 34
220 19 63 44 138 56 166 l23 51 123 23 c68 12 151 28 184 35 33 7 70 13 82 14
l23 1 -21 -52z"/>
<path d="M6930 5474 c-17 -15 -51 -55 -76 -90 -57 -80 -261 -483 -341 -674
-95 -226 -229 -594 -261 -717 -16 -61 -42 -133 -57 -161 -32 -58 -268 -339
-308 -364 -40 -27 -47 -22 -47 28 0 155 85 516 163 695 135 307 212 456 336
644 139 213 232 431 235 548 1 50 -2 61 -23 78 -13 10 -37 19 -54 19 -86 0
-248 -254 -445 -695 -135 -304 -183 -430 -267 -710 -46 -153 -79 -204 -241
-375 -82 -86 -194 -180 -215 -180 -17 0 -9 88 17 176 36 127 136 353 194 442
77 117 76 137 -7 174 -38 17 -108 27 -117 17 -8 -11 -135 -299 -146 -334 -24
-74 -60 -134 -135 -224 -110 -131 -255 -245 -286 -225 -31 19 32 211 139 428
112 228 116 238 96 284 -22 53 -43 72 -79 72 -29 0 -39 -9 -96 -87 -34 -49
-95 -135 -134 -193 -147 -217 -353 -456 -434 -503 -28 -17 -32 -17 -37 -2 -25
64 31 253 158 540 44 99 85 193 91 208 11 26 9 31 -20 57 -33 30 -95 53 -118
44 -7 -3 -29 -45 -49 -92 -19 -48 -47 -116 -62 -152 -46 -110 -111 -312 -130
-401 -22 -108 -24 -253 -4 -294 38 -75 131 -95 229 -50 57 27 194 152 259 238
20 26 39 47 43 47 3 0 3 -19 -2 -42 -27 -138 14 -232 111 -258 80 -22 172 19
292 129 l57 52 7 -38 c17 -97 86 -157 179 -157 70 0 104 21 230 145 l110 107
0 -133 c0 -129 1 -134 25 -160 55 -59 122 -70 199 -33 27 13 87 63 146 122
l101 101 0 -66 c0 -77 21 -121 75 -157 28 -20 44 -23 91 -20 69 5 132 43 232
143 l68 67 47 -47 c58 -60 94 -75 174 -75 125 0 211 44 372 189 50 44 92 81
95 81 3 0 4 -43 2 -95 -3 -92 -3 -95 24 -120 59 -55 124 -16 193 115 100 192
318 531 381 594 41 42 37 21 -66 -336 -52 -178 -45 -229 31 -244 55 -10 82 15
183 171 124 192 207 284 233 258 6 -6 -1 -57 -17 -129 -15 -69 -28 -168 -31
-234 -6 -135 4 -171 62 -216 75 -57 159 -27 288 100 137 135 347 436 347 497
0 36 -36 62 -81 57 -29 -3 -41 -15 -111 -118 -121 -179 -306 -390 -342 -390
-22 0 11 197 64 379 34 116 38 177 14 222 -16 33 -66 59 -110 59 -44 0 -124
-51 -172 -110 -25 -30 -42 -46 -37 -35 4 11 10 54 12 95 4 67 2 79 -19 110
-35 53 -80 72 -155 67 -107 -8 -212 -90 -318 -248 -27 -41 -53 -78 -58 -84
-14 -17 12 46 54 127 62 123 51 174 -40 172 -87 -1 -138 -55 -176 -189 -9 -33
-25 -75 -35 -95 -10 -19 -108 -125 -217 -235 -214 -217 -278 -265 -362 -273
-45 -4 -50 -2 -70 27 -23 32 -46 141 -37 177 5 17 18 24 68 34 133 25 338 171
386 272 76 164 0 297 -170 298 -123 0 -250 -85 -331 -221 -49 -83 -93 -222
-105 -332 -8 -71 -15 -94 -38 -125 -48 -64 -203 -214 -217 -209 -16 6 -12 134
9 247 18 99 70 288 120 439 55 165 197 449 334 671 93 150 189 327 219 400 40
102 57 226 37 274 -14 33 -19 36 -55 36 -28 0 -48 -8 -71 -26z m142 -1366
c-14 -56 -193 -194 -242 -186 -19 3 -19 4 -1 44 40 88 140 164 218 164 27 0
30 -3 25 -22z"/>
<path d="M5539 4588 c-15 -25 -19 -43 -15 -75 11 -82 56 -116 119 -90 46 20
61 48 54 106 -7 59 -41 91 -98 91 -34 0 -42 -5 -60 -32z"/>
</g>
</svg>
